<svg xmlns="http://www.w3.org/2000/svg" viewBox="0 0 475 950">
  <path fill="white" fill-opacity=".15" stroke="white" stroke-width="5" stroke-opacity=".15"
        d="M 272.00,45.00
           C 272.00,45.00 273.00,47.00 273.00,47.00
             273.00,47.00 261.91,50.98 261.91,50.98
             261.91,50.98 254.00,53.45 254.00,53.45
             254.00,53.45 248.00,57.66 248.00,57.66
             248.00,57.66 242.17,60.66 242.17,60.66
             242.17,60.66 237.83,63.73 237.83,63.73
             237.83,63.73 230.00,66.99 230.00,66.99
             230.00,66.99 220.00,73.33 220.00,73.33
             220.00,73.33 209.09,80.60 209.09,80.60
             209.09,80.60 202.00,86.00 202.00,86.00
             202.00,86.00 201.00,89.00 201.00,89.00
             197.07,88.87 196.68,89.11 196.00,93.00
             192.20,92.52 191.90,92.66 190.00,96.00
             183.74,96.89 175.06,105.45 170.00,109.61
             170.00,109.61 149.10,128.17 149.10,128.17
             149.10,128.17 142.79,135.68 142.79,135.68
             140.16,138.24 137.75,139.14 133.09,144.01
             129.06,148.23 121.37,158.63 117.00,161.00
             117.00,161.00 110.00,172.00 110.00,172.00
             105.63,174.25 103.00,176.91 103.00,182.00
             92.17,188.07 93.54,196.84 86.00,201.00
             85.75,205.75 84.06,206.12 80.00,208.00
             79.86,214.04 76.64,215.66 73.54,220.16
             73.54,220.16 68.78,228.17 68.78,228.17
             68.78,228.17 65.15,235.00 65.15,235.00
             65.15,235.00 60.19,242.00 60.19,242.00
             60.19,242.00 53.19,256.72 53.19,256.72
             53.19,256.72 49.36,262.04 49.36,262.04
             46.60,266.70 40.75,278.93 41.00,284.00
             35.89,287.29 36.98,291.05 35.12,296.00
             35.12,296.00 31.85,303.00 31.85,303.00
             21.60,324.06 16.30,351.20 10.63,374.00
             5.41,394.95 2.48,416.52 0.91,438.00
             0.91,438.00 0.00,448.00 0.00,448.00
             0.00,448.00 0.00,498.00 0.00,498.00
             0.02,513.26 5.61,555.01 9.24,570.00
             9.24,570.00 11.39,577.00 11.39,577.00
             11.39,577.00 12.89,587.00 12.89,587.00
             12.89,587.00 24.52,627.00 24.52,627.00
             24.52,627.00 30.32,640.00 30.32,640.00
             30.32,640.00 35.35,656.04 35.35,656.04
             35.35,656.04 51.52,691.00 51.52,691.00
             51.52,691.00 55.74,698.00 55.74,698.00
             55.74,698.00 59.48,705.96 59.48,705.96
             62.96,711.53 65.14,710.63 66.00,718.00
             68.85,718.99 69.48,721.17 70.00,724.00
             79.29,732.75 81.26,748.01 94.00,753.00
             93.83,759.99 101.42,770.02 108.00,772.00
             107.79,780.30 112.75,778.75 116.16,783.30
             118.06,785.82 117.37,787.60 121.14,792.00
             121.14,792.00 141.00,813.00 141.00,813.00
             141.00,813.00 144.00,812.00 144.00,812.00
             146.71,819.34 149.32,819.09 155.00,824.17
             155.00,824.17 178.00,844.00 178.00,844.00
             182.05,847.24 185.76,851.25 191.00,852.00
             192.90,855.34 193.20,855.48 197.00,855.00
             197.68,858.89 198.07,859.13 202.00,859.00
             202.00,859.00 203.00,862.00 203.00,862.00
             203.00,862.00 210.09,867.40 210.09,867.40
             210.09,867.40 221.00,874.67 221.00,874.67
             221.00,874.67 231.00,881.01 231.00,881.01
             231.00,881.01 238.83,884.27 238.83,884.27
             238.83,884.27 243.17,887.34 243.17,887.34
             243.17,887.34 249.00,890.34 249.00,890.34
             249.00,890.34 255.00,894.55 255.00,894.55
             255.00,894.55 262.91,897.02 262.91,897.02
             262.91,897.02 274.00,901.00 274.00,901.00
             274.00,901.00 273.00,903.00 273.00,903.00
             273.00,903.00 290.00,910.24 290.00,910.24
             290.00,910.24 302.04,916.29 302.04,916.29
             302.04,916.29 333.00,926.85 333.00,926.85
             333.00,926.85 348.00,930.05 348.00,930.05
             348.00,930.05 358.00,934.07 358.00,934.07
             358.00,934.07 390.00,940.42 390.00,940.42
             390.00,940.42 432.00,946.00 432.00,946.00
             432.00,946.00 475.00,946.00 475.00,946.00
             475.00,946.00 475.00,752.00 475.00,752.00
             475.00,752.00 432.00,752.00 432.00,752.00
             428.95,751.99 424.74,752.37 422.61,749.69
             420.63,747.13 422.05,742.92 422.61,740.00
             422.61,740.00 426.13,718.00 426.13,718.00
             426.13,718.00 428.32,700.00 428.32,700.00
             428.32,700.00 430.71,691.00 430.71,691.00
             430.71,691.00 434.73,665.00 434.73,665.00
             434.73,665.00 444.00,610.00 444.00,610.00
             444.00,610.00 414.00,602.60 414.00,602.60
             407.71,599.59 399.47,591.68 393.00,591.00
             390.68,586.53 382.27,580.80 377.96,576.95
             376.17,575.35 373.66,572.79 371.04,573.02
             367.95,573.30 365.51,577.75 361.91,580.65
             361.91,580.65 353.17,585.96 353.17,585.96
             349.55,588.58 338.91,599.08 337.00,603.00
             330.31,604.26 325.84,611.26 320.79,615.37
             315.43,619.73 312.67,618.32 309.00,626.00
             302.99,627.13 299.58,633.20 294.96,636.87
             294.96,636.87 283.17,645.75 283.17,645.75
             283.17,645.75 276.96,651.62 276.96,651.62
             276.96,651.62 261.00,664.00 261.00,664.00
             259.50,660.58 259.57,660.22 256.00,659.00
             256.49,651.64 250.91,645.87 247.00,640.00
             244.40,636.10 243.20,633.35 239.00,631.00
             239.00,631.00 235.00,618.00 235.00,618.00
             231.99,617.08 231.34,614.98 231.00,612.00
             231.00,612.00 229.00,612.00 229.00,612.00
             228.27,607.38 225.41,604.02 223.16,600.00
             219.65,593.73 220.57,590.66 213.00,587.00
             214.19,578.98 209.07,575.74 206.00,569.00
             206.00,569.00 225.00,561.68 225.00,561.68
             228.89,560.24 232.62,559.54 235.00,556.00
             240.28,556.51 245.02,553.27 250.00,551.72
             250.00,551.72 288.00,538.05 288.00,538.05
             292.87,536.27 302.15,534.23 305.00,530.00
             310.45,530.56 313.10,528.40 318.00,526.45
             318.00,526.45 329.00,522.55 329.00,522.55
             329.00,522.55 340.00,518.00 340.00,518.00
             337.15,496.44 334.97,485.40 335.00,463.00
             335.02,447.00 338.78,444.56 339.00,435.00
             339.00,435.00 301.00,420.43 301.00,420.43
             301.00,420.43 290.00,417.19 290.00,417.19
             290.00,417.19 281.00,413.07 281.00,413.07
             281.00,413.07 268.96,409.48 268.96,409.48
             268.96,409.48 259.01,405.13 259.01,405.13
             259.01,405.13 247.00,401.88 247.00,401.88
             241.52,399.74 240.30,397.20 234.00,398.00
             231.58,394.77 228.70,394.32 225.00,393.12
             219.37,391.29 208.43,386.73 203.00,387.00
             203.00,387.00 201.00,385.00 201.00,385.00
             201.00,385.00 213.00,359.00 213.00,359.00
             217.49,356.38 217.14,354.15 219.60,350.00
             222.77,344.67 227.19,338.26 228.00,332.00
             231.42,329.89 230.89,329.19 232.89,326.00
             232.89,326.00 238.56,318.00 238.56,318.00
             242.21,311.08 240.58,308.28 248.00,302.00
             248.00,302.00 247.00,298.00 247.00,298.00
             252.16,295.09 253.82,292.81 255.00,287.00
             255.00,287.00 259.00,287.00 259.00,287.00
             259.00,287.00 270.00,296.52 270.00,296.52
             270.00,296.52 288.00,312.84 288.00,312.84
             288.00,312.84 292.00,312.84 292.00,312.84
             292.00,312.84 292.00,317.00 292.00,317.00
             292.00,317.00 296.00,316.00 296.00,316.00
             298.60,323.63 301.43,323.34 306.70,327.88
             306.70,327.88 312.13,333.65 312.13,333.65
             312.13,333.65 322.91,340.78 322.91,340.78
             327.19,344.11 328.27,347.92 334.00,349.00
             337.14,355.21 354.72,369.10 360.99,373.17
             363.30,374.67 366.60,378.24 369.09,378.29
             373.08,378.37 376.54,373.59 379.09,371.09
             383.07,367.18 392.15,360.79 397.00,357.44
             400.86,354.76 403.58,354.16 406.00,350.00
             406.00,350.00 410.00,351.00 410.00,351.00
             410.00,351.00 411.00,350.00 411.00,350.00
             411.00,350.00 410.00,347.00 410.00,347.00
             417.21,348.35 419.69,344.92 426.00,342.35
             426.00,342.35 436.00,339.64 436.00,339.64
             438.92,338.64 442.01,337.38 442.58,333.96
             442.93,331.91 441.39,327.62 441.09,325.00
             441.09,325.00 436.61,294.00 436.61,294.00
             436.61,294.00 433.57,273.00 433.57,273.00
             433.57,273.00 424.84,219.00 424.84,219.00
             423.31,207.44 421.00,212.92 421.00,195.00
             421.00,195.00 475.00,195.00 475.00,195.00
             475.00,195.00 475.00,0.00 475.00,0.00
             475.00,0.00 452.00,0.00 452.00,0.00
             452.00,0.00 414.00,3.72 414.00,3.72
             414.00,3.72 358.00,13.67 358.00,13.67
             358.00,13.67 347.00,17.95 347.00,17.95
             347.00,17.95 333.00,20.89 333.00,20.89
             333.00,20.89 312.00,27.69 312.00,27.69
             312.00,27.69 272.00,45.00 272.00,45.00 Z
           M 300.00,35.00
           C 300.00,35.00 300.00,36.00 300.00,36.00
             300.00,36.00 299.00,35.00 299.00,35.00
             299.00,35.00 300.00,35.00 300.00,35.00 Z
           M 455.00,49.00
           C 455.00,49.00 455.00,92.00 455.00,92.00
             455.00,93.82 455.12,97.16 454.40,98.78
             452.19,103.72 442.52,102.74 438.00,103.28
             438.00,103.28 413.00,107.13 413.00,107.13
             407.51,107.90 401.34,108.30 397.00,112.00
             393.08,112.24 384.13,113.15 381.83,116.39
             379.57,119.56 381.90,125.59 382.86,129.00
             382.86,129.00 391.00,160.00 391.00,160.00
             391.00,160.00 372.00,166.10 372.00,166.10
             366.97,167.60 366.21,166.07 362.00,170.00
             353.99,170.15 345.94,176.07 339.00,179.42
             335.16,181.27 329.65,179.96 322.00,189.00
             315.66,189.85 304.69,198.10 299.00,201.86
             295.51,204.17 295.46,205.50 291.00,206.00
             288.08,210.68 280.74,213.79 276.00,216.88
             271.46,219.84 266.29,225.66 263.00,230.00
             256.50,231.69 247.50,245.50 242.00,233.00
             242.00,233.00 240.00,234.00 240.00,234.00
             240.00,234.00 236.00,230.00 236.00,230.00
             236.00,230.00 235.00,225.00 235.00,225.00
             235.00,225.00 232.00,226.00 232.00,226.00
             232.00,226.00 231.00,221.00 231.00,221.00
             231.00,221.00 228.00,222.00 228.00,222.00
             228.00,222.00 223.00,214.00 223.00,214.00
             223.00,214.00 221.00,215.00 221.00,215.00
             221.00,215.00 220.00,210.00 220.00,210.00
             220.00,210.00 215.00,210.00 215.00,210.00
             215.00,210.00 216.00,215.00 216.00,215.00
             216.00,215.00 210.00,216.00 210.00,216.00
             210.00,216.00 211.00,219.00 211.00,219.00
             205.97,219.63 204.87,223.17 201.87,226.96
             196.13,234.21 191.05,236.35 186.00,245.00
             186.00,245.00 184.00,244.00 184.00,244.00
             184.00,244.00 173.00,262.00 173.00,262.00
             173.00,262.00 162.00,276.00 162.00,276.00
             162.00,276.00 153.17,272.06 153.17,272.06
             153.17,272.06 148.83,268.97 148.83,268.97
             148.83,268.97 131.00,258.86 131.00,258.86
             131.00,258.86 117.01,251.47 117.01,251.47
             117.01,251.47 115.00,246.00 115.00,246.00
             118.65,243.24 125.83,233.30 127.00,229.00
             133.41,223.95 132.80,221.60 136.95,216.21
             136.95,216.21 141.47,211.63 141.47,211.63
             141.47,211.63 145.29,206.00 145.29,206.00
             150.80,199.04 152.73,199.11 156.00,190.00
             156.00,190.00 160.00,191.00 160.00,191.00
             162.41,182.76 168.12,178.88 174.00,173.00
             174.00,173.00 184.41,162.62 184.41,162.62
             186.70,160.92 187.87,161.49 190.12,159.54
             190.12,159.54 199.17,149.60 199.17,149.60
             204.19,145.36 209.45,141.85 214.00,137.00
             214.00,137.00 220.00,136.00 220.00,136.00
             220.00,136.00 218.00,135.00 218.00,135.00
             218.00,135.00 222.00,134.00 222.00,134.00
             222.00,134.00 221.00,131.00 221.00,131.00
             230.92,128.65 231.13,124.08 239.01,118.87
             239.01,118.87 249.00,113.48 249.00,113.48
             249.00,113.48 257.00,108.34 257.00,108.34
             265.41,103.52 266.14,104.99 273.00,97.00
             278.08,97.17 279.69,95.67 283.00,92.00
             283.00,92.00 292.00,91.00 292.00,91.00
             292.00,91.00 291.00,88.00 291.00,88.00
             296.52,88.31 310.95,81.87 315.00,78.00
             320.39,77.86 339.22,70.60 345.00,68.13
             345.00,68.13 354.00,64.30 354.00,64.30
             354.00,64.30 371.00,60.58 371.00,60.58
             399.20,54.38 426.01,49.00 455.00,49.00 Z
           M 415.00,50.00
           C 415.00,50.00 415.00,51.00 415.00,51.00
             415.00,51.00 414.00,50.00 414.00,50.00
             414.00,50.00 415.00,50.00 415.00,50.00 Z
           M 257.00,53.00
           C 257.00,53.00 257.00,54.00 257.00,54.00
             257.00,54.00 256.00,53.00 256.00,53.00
             256.00,53.00 257.00,53.00 257.00,53.00 Z
           M 251.00,60.00
           C 251.00,60.00 251.00,61.00 251.00,61.00
             251.00,61.00 250.00,60.00 250.00,60.00
             250.00,60.00 251.00,60.00 251.00,60.00 Z
           M 242.00,62.00
           C 242.00,62.00 242.00,63.00 242.00,63.00
             242.00,63.00 241.00,62.00 241.00,62.00
             241.00,62.00 242.00,62.00 242.00,62.00 Z
           M 338.00,68.00
           C 338.00,68.00 338.00,69.00 338.00,69.00
             338.00,69.00 337.00,68.00 337.00,68.00
             337.00,68.00 338.00,68.00 338.00,68.00 Z
           M 339.00,69.00
           C 339.00,69.00 339.00,70.00 339.00,70.00
             339.00,70.00 338.00,69.00 338.00,69.00
             338.00,69.00 339.00,69.00 339.00,69.00 Z
           M 223.00,74.00
           C 223.00,74.00 223.00,75.00 223.00,75.00
             223.00,75.00 222.00,74.00 222.00,74.00
             222.00,74.00 223.00,74.00 223.00,74.00 Z
           M 308.00,81.00
           C 308.00,81.00 308.00,82.00 308.00,82.00
             308.00,82.00 307.00,81.00 307.00,81.00
             307.00,81.00 308.00,81.00 308.00,81.00 Z
           M 290.00,87.00
           C 290.00,87.00 290.00,88.00 290.00,88.00
             290.00,88.00 289.00,87.00 289.00,87.00
             289.00,87.00 290.00,87.00 290.00,87.00 Z
           M 282.00,91.00
           C 282.00,91.00 282.00,92.00 282.00,92.00
             282.00,92.00 281.00,91.00 281.00,91.00
             281.00,91.00 282.00,91.00 282.00,91.00 Z
           M 278.00,95.00
           C 278.00,95.00 278.00,96.00 278.00,96.00
             278.00,96.00 277.00,95.00 277.00,95.00
             277.00,95.00 278.00,95.00 278.00,95.00 Z
           M 277.00,96.00
           C 277.00,96.00 277.00,97.00 277.00,97.00
             277.00,97.00 276.00,96.00 276.00,96.00
             276.00,96.00 277.00,96.00 277.00,96.00 Z
           M 185.00,101.00
           C 185.00,101.00 185.00,102.00 185.00,102.00
             185.00,102.00 184.00,101.00 184.00,101.00
             184.00,101.00 185.00,101.00 185.00,101.00 Z
           M 179.00,104.00
           C 179.00,104.00 179.00,105.00 179.00,105.00
             179.00,105.00 178.00,104.00 178.00,104.00
             178.00,104.00 179.00,104.00 179.00,104.00 Z
           M 178.00,106.00
           C 178.00,106.00 178.00,107.00 178.00,107.00
             178.00,107.00 177.00,106.00 177.00,106.00
             177.00,106.00 178.00,106.00 178.00,106.00 Z
           M 259.00,106.00
           C 259.00,106.00 259.00,107.00 259.00,107.00
             259.00,107.00 258.00,106.00 258.00,106.00
             258.00,106.00 259.00,106.00 259.00,106.00 Z
           M 177.00,108.00
           C 177.00,108.00 177.00,109.00 177.00,109.00
             177.00,109.00 176.00,108.00 176.00,108.00
             176.00,108.00 177.00,108.00 177.00,108.00 Z
           M 248.00,110.00
           C 248.00,110.00 248.00,111.00 248.00,111.00
             248.00,111.00 247.00,110.00 247.00,110.00
             247.00,110.00 248.00,110.00 248.00,110.00 Z
           M 398.00,112.00
           C 398.00,112.00 398.00,113.00 398.00,113.00
             398.00,113.00 397.00,112.00 397.00,112.00
             397.00,112.00 398.00,112.00 398.00,112.00 Z
           M 233.00,122.00
           C 233.00,122.00 233.00,123.00 233.00,123.00
             233.00,123.00 232.00,122.00 232.00,122.00
             232.00,122.00 233.00,122.00 233.00,122.00 Z
           M 156.00,127.00
           C 156.00,127.00 156.00,128.00 156.00,128.00
             156.00,128.00 155.00,127.00 155.00,127.00
             155.00,127.00 156.00,127.00 156.00,127.00 Z
           M 152.00,128.00
           C 152.00,128.00 152.00,129.00 152.00,129.00
             152.00,129.00 151.00,128.00 151.00,128.00
             151.00,128.00 152.00,128.00 152.00,128.00 Z
           M 132.00,148.00
           C 132.00,148.00 132.00,149.00 132.00,149.00
             132.00,149.00 131.00,148.00 131.00,148.00
             131.00,148.00 132.00,148.00 132.00,148.00 Z
           M 198.00,149.00
           C 198.00,149.00 198.00,150.00 198.00,150.00
             198.00,150.00 197.00,149.00 197.00,149.00
             197.00,149.00 198.00,149.00 198.00,149.00 Z
           M 194.00,152.00
           C 194.00,152.00 194.00,153.00 194.00,153.00
             194.00,153.00 193.00,152.00 193.00,152.00
             193.00,152.00 194.00,152.00 194.00,152.00 Z
           M 195.00,153.00
           C 195.00,153.00 195.00,154.00 195.00,154.00
             195.00,154.00 194.00,153.00 194.00,153.00
             194.00,153.00 195.00,153.00 195.00,153.00 Z
           M 127.00,154.00
           C 127.00,154.00 127.00,155.00 127.00,155.00
             127.00,155.00 126.00,154.00 126.00,154.00
             126.00,154.00 127.00,154.00 127.00,154.00 Z
           M 377.00,165.00
           C 377.00,165.00 377.00,166.00 377.00,166.00
             377.00,166.00 376.00,165.00 376.00,165.00
             376.00,165.00 377.00,165.00 377.00,165.00 Z
           M 375.00,166.00
           C 375.00,166.00 375.00,167.00 375.00,167.00
             375.00,167.00 374.00,166.00 374.00,166.00
             374.00,166.00 375.00,166.00 375.00,166.00 Z
           M 367.00,168.00
           C 367.00,168.00 367.00,169.00 367.00,169.00
             367.00,169.00 366.00,168.00 366.00,168.00
             366.00,168.00 367.00,168.00 367.00,168.00 Z
           M 113.00,169.00
           C 113.00,169.00 113.00,170.00 113.00,170.00
             113.00,170.00 112.00,169.00 112.00,169.00
             112.00,169.00 113.00,169.00 113.00,169.00 Z
           M 354.00,173.00
           C 354.00,173.00 354.00,174.00 354.00,174.00
             354.00,174.00 353.00,173.00 353.00,173.00
             353.00,173.00 354.00,173.00 354.00,173.00 Z
           M 105.00,179.00
           C 105.00,179.00 105.00,180.00 105.00,180.00
             105.00,180.00 104.00,179.00 104.00,179.00
             104.00,179.00 105.00,179.00 105.00,179.00 Z
           M 331.00,183.00
           C 331.00,183.00 331.00,184.00 331.00,184.00
             331.00,184.00 330.00,183.00 330.00,183.00
             330.00,183.00 331.00,183.00 331.00,183.00 Z
           M 98.00,187.00
           C 98.00,187.00 98.00,188.00 98.00,188.00
             98.00,188.00 97.00,187.00 97.00,187.00
             97.00,187.00 98.00,187.00 98.00,187.00 Z
           M 97.00,189.00
           C 97.00,189.00 97.00,190.00 97.00,190.00
             97.00,190.00 96.00,189.00 96.00,189.00
             96.00,189.00 97.00,189.00 97.00,189.00 Z
           M 311.00,194.00
           C 311.00,194.00 311.00,195.00 311.00,195.00
             311.00,195.00 310.00,194.00 310.00,194.00
             310.00,194.00 311.00,194.00 311.00,194.00 Z
           M 145.00,204.00
           C 145.00,204.00 145.00,205.00 145.00,205.00
             145.00,205.00 144.00,204.00 144.00,204.00
             144.00,204.00 145.00,204.00 145.00,204.00 Z
           M 287.00,211.00
           C 287.00,211.00 287.00,212.00 287.00,212.00
             287.00,212.00 286.00,211.00 286.00,211.00
             286.00,211.00 287.00,211.00 287.00,211.00 Z
           M 277.00,219.00
           C 277.00,219.00 277.00,220.00 277.00,220.00
             277.00,220.00 276.00,219.00 276.00,219.00
             276.00,219.00 277.00,219.00 277.00,219.00 Z
           M 273.00,220.00
           C 273.00,220.00 273.00,221.00 273.00,221.00
             273.00,221.00 272.00,220.00 272.00,220.00
             272.00,220.00 273.00,220.00 273.00,220.00 Z
           M 424.00,220.00
           C 424.00,220.00 424.00,221.00 424.00,221.00
             424.00,221.00 423.00,220.00 423.00,220.00
             423.00,220.00 424.00,220.00 424.00,220.00 Z
           M 271.00,222.00
           C 271.00,222.00 271.00,223.00 271.00,223.00
             271.00,223.00 270.00,222.00 270.00,222.00
             270.00,222.00 271.00,222.00 271.00,222.00 Z
           M 74.00,223.00
           C 74.00,223.00 74.00,224.00 74.00,224.00
             74.00,224.00 73.00,223.00 73.00,223.00
             73.00,223.00 74.00,223.00 74.00,223.00 Z
           M 269.00,224.00
           C 269.00,224.00 269.00,225.00 269.00,225.00
             269.00,225.00 268.00,224.00 268.00,224.00
             268.00,224.00 269.00,224.00 269.00,224.00 Z
           M 254.00,237.00
           C 254.00,237.00 254.00,238.00 254.00,238.00
             254.00,238.00 253.00,237.00 253.00,237.00
             253.00,237.00 254.00,237.00 254.00,237.00 Z
           M 184.00,248.00
           C 184.00,248.00 184.00,249.00 184.00,249.00
             184.00,249.00 183.00,248.00 183.00,248.00
             183.00,248.00 184.00,248.00 184.00,248.00 Z
           M 180.00,253.00
           C 180.00,253.00 180.00,254.00 180.00,254.00
             180.00,254.00 179.00,253.00 179.00,253.00
             179.00,253.00 180.00,253.00 180.00,253.00 Z
           M 126.00,257.00
           C 126.00,257.00 126.00,258.00 126.00,258.00
             126.00,258.00 125.00,257.00 125.00,257.00
             125.00,257.00 126.00,257.00 126.00,257.00 Z
           M 47.00,273.00
           C 47.00,273.00 47.00,274.00 47.00,274.00
             47.00,274.00 46.00,273.00 46.00,273.00
             46.00,273.00 47.00,273.00 47.00,273.00 Z
           M 166.00,273.00
           C 166.00,273.00 166.00,274.00 166.00,274.00
             166.00,274.00 165.00,273.00 165.00,273.00
             165.00,273.00 166.00,273.00 166.00,273.00 Z
           M 45.00,275.00
           C 45.00,275.00 45.00,276.00 45.00,276.00
             45.00,276.00 44.00,275.00 44.00,275.00
             44.00,275.00 45.00,275.00 45.00,275.00 Z
           M 45.00,278.00
           C 45.00,278.00 45.00,279.00 45.00,279.00
             45.00,279.00 44.00,278.00 44.00,278.00
             44.00,278.00 45.00,278.00 45.00,278.00 Z
           M 262.00,285.00
           C 262.00,285.00 262.00,286.00 262.00,286.00
             262.00,286.00 261.00,285.00 261.00,285.00
             261.00,285.00 262.00,285.00 262.00,285.00 Z
           M 131.00,310.00
           C 135.95,309.38 137.13,311.21 141.00,314.00
             141.00,314.00 133.45,331.00 133.45,331.00
             133.45,331.00 129.92,342.00 129.92,342.00
             129.92,342.00 123.02,362.00 123.02,362.00
             120.49,370.25 115.42,379.56 128.00,380.00
             128.00,380.00 127.00,383.00 127.00,383.00
             127.00,383.00 150.00,389.72 150.00,389.72
             152.53,390.48 157.30,391.57 158.31,394.27
             159.08,396.33 156.55,408.12 156.00,411.00
             156.00,411.00 151.09,448.00 151.09,448.00
             151.09,448.00 150.00,485.00 150.00,485.00
             150.00,485.00 151.04,496.00 151.04,496.00
             151.04,496.00 151.04,506.00 151.04,506.00
             151.04,506.00 153.72,524.00 153.72,524.00
             153.72,524.00 156.08,542.00 156.08,542.00
             156.08,542.00 158.57,553.00 158.57,553.00
             159.59,561.16 152.38,559.47 147.00,560.93
             147.00,560.93 138.00,564.38 138.00,564.38
             138.00,564.38 117.00,568.00 117.00,568.00
             117.00,568.00 123.02,586.00 123.02,586.00
             123.02,586.00 126.13,594.83 126.13,594.83
             126.13,594.83 129.71,607.00 129.71,607.00
             129.71,607.00 133.54,615.00 133.54,615.00
             133.54,615.00 135.55,621.00 135.55,621.00
             137.94,626.26 146.83,642.12 146.68,646.91
             146.55,651.30 142.19,651.95 139.00,653.55
             132.07,657.01 120.51,667.15 113.00,666.00
             111.85,669.26 111.58,670.49 108.00,671.00
             108.00,671.00 108.00,673.00 108.00,673.00
             108.00,673.00 99.00,676.00 99.00,676.00
             99.00,676.00 95.95,670.04 95.95,670.04
             94.28,667.26 92.46,665.92 91.13,662.91
             91.13,662.91 86.01,648.00 86.01,648.00
             86.01,648.00 78.68,636.00 78.68,636.00
             76.46,630.44 76.35,619.64 70.00,613.00
             70.00,613.00 60.37,576.00 60.37,576.00
             55.35,555.92 49.03,520.33 49.00,500.00
             49.00,500.00 49.00,450.00 49.00,450.00
             49.00,450.00 55.08,398.00 55.08,398.00
             55.08,398.00 65.12,353.00 65.12,353.00
             66.21,347.96 67.85,346.50 68.00,341.00
             68.00,341.00 76.77,318.00 76.77,318.00
             76.77,318.00 83.36,305.00 83.36,305.00
             83.36,305.00 92.00,286.00 92.00,286.00
             92.00,286.00 119.00,301.24 119.00,301.24
             123.80,303.68 128.96,304.79 131.00,310.00 Z
           M 88.00,291.00
           C 88.00,291.00 88.00,292.00 88.00,292.00
             88.00,292.00 87.00,291.00 87.00,291.00
             87.00,291.00 88.00,291.00 88.00,291.00 Z
           M 268.00,292.00
           C 268.00,292.00 268.00,293.00 268.00,293.00
             268.00,293.00 267.00,292.00 267.00,292.00
             267.00,292.00 268.00,292.00 268.00,292.00 Z
           M 248.00,296.00
           C 248.00,296.00 248.00,297.00 248.00,297.00
             248.00,297.00 247.00,296.00 247.00,296.00
             247.00,296.00 248.00,296.00 248.00,296.00 Z
           M 37.00,297.00
           C 37.00,297.00 37.00,298.00 37.00,298.00
             37.00,298.00 36.00,297.00 36.00,297.00
             36.00,297.00 37.00,297.00 37.00,297.00 Z
           M 284.00,305.00
           C 284.00,305.00 284.00,306.00 284.00,306.00
             284.00,306.00 283.00,305.00 283.00,305.00
             283.00,305.00 284.00,305.00 284.00,305.00 Z
           M 291.00,311.00
           C 291.00,311.00 291.00,312.00 291.00,312.00
             291.00,312.00 290.00,311.00 290.00,311.00
             290.00,311.00 291.00,311.00 291.00,311.00 Z
           M 141.00,312.00
           C 141.00,312.00 141.00,313.00 141.00,313.00
             141.00,313.00 140.00,312.00 140.00,312.00
             140.00,312.00 141.00,312.00 141.00,312.00 Z
           M 140.00,320.00
           C 140.00,320.00 140.00,321.00 140.00,321.00
             140.00,321.00 139.00,320.00 139.00,320.00
             139.00,320.00 140.00,320.00 140.00,320.00 Z
           M 233.00,323.00
           C 233.00,323.00 233.00,324.00 233.00,324.00
             233.00,324.00 232.00,323.00 232.00,323.00
             232.00,323.00 233.00,323.00 233.00,323.00 Z
           M 73.00,327.00
           C 73.00,327.00 73.00,328.00 73.00,328.00
             73.00,328.00 72.00,327.00 72.00,327.00
             72.00,327.00 73.00,327.00 73.00,327.00 Z
           M 137.00,329.00
           C 137.00,329.00 137.00,330.00 137.00,330.00
             137.00,330.00 136.00,329.00 136.00,329.00
             136.00,329.00 137.00,329.00 137.00,329.00 Z
           M 311.00,330.00
           C 311.00,330.00 311.00,331.00 311.00,331.00
             311.00,331.00 310.00,330.00 310.00,330.00
             310.00,330.00 311.00,330.00 311.00,330.00 Z
           M 315.00,333.00
           C 315.00,333.00 315.00,334.00 315.00,334.00
             315.00,334.00 314.00,333.00 314.00,333.00
             314.00,333.00 315.00,333.00 315.00,333.00 Z
           M 70.00,335.00
           C 70.00,335.00 70.00,336.00 70.00,336.00
             70.00,336.00 69.00,335.00 69.00,335.00
             69.00,335.00 70.00,335.00 70.00,335.00 Z
           M 69.00,338.00
           C 69.00,338.00 69.00,339.00 69.00,339.00
             69.00,339.00 68.00,338.00 68.00,338.00
             68.00,338.00 69.00,338.00 69.00,338.00 Z
           M 217.00,349.00
           C 217.00,349.00 217.00,350.00 217.00,350.00
             217.00,350.00 216.00,349.00 216.00,349.00
             216.00,349.00 217.00,349.00 217.00,349.00 Z
           M 338.00,349.00
           C 338.00,349.00 338.00,350.00 338.00,350.00
             338.00,350.00 337.00,349.00 337.00,349.00
             337.00,349.00 338.00,349.00 338.00,349.00 Z
           M 218.00,350.00
           C 218.00,350.00 218.00,351.00 218.00,351.00
             218.00,351.00 217.00,350.00 217.00,350.00
             217.00,350.00 218.00,350.00 218.00,350.00 Z
           M 405.00,350.00
           C 405.00,350.00 405.00,351.00 405.00,351.00
             405.00,351.00 404.00,350.00 404.00,350.00
             404.00,350.00 405.00,350.00 405.00,350.00 Z
           M 398.00,354.00
           C 398.00,354.00 398.00,355.00 398.00,355.00
             398.00,355.00 397.00,354.00 397.00,354.00
             397.00,354.00 398.00,354.00 398.00,354.00 Z
           M 396.00,356.00
           C 396.00,356.00 396.00,357.00 396.00,357.00
             396.00,357.00 395.00,356.00 395.00,356.00
             395.00,356.00 396.00,356.00 396.00,356.00 Z
           M 215.00,357.00
           C 215.00,357.00 215.00,358.00 215.00,358.00
             215.00,358.00 214.00,357.00 214.00,357.00
             214.00,357.00 215.00,357.00 215.00,357.00 Z
           M 202.00,376.00
           C 202.00,376.00 202.00,377.00 202.00,377.00
             202.00,377.00 201.00,376.00 201.00,376.00
             201.00,376.00 202.00,376.00 202.00,376.00 Z
           M 131.00,381.00
           C 131.00,381.00 131.00,382.00 131.00,382.00
             131.00,382.00 130.00,381.00 130.00,381.00
             130.00,381.00 131.00,381.00 131.00,381.00 Z
           M 142.00,385.00
           C 142.00,385.00 142.00,386.00 142.00,386.00
             142.00,386.00 141.00,385.00 141.00,385.00
             141.00,385.00 142.00,385.00 142.00,385.00 Z
           M 150.00,388.00
           C 150.00,388.00 150.00,389.00 150.00,389.00
             150.00,389.00 149.00,388.00 149.00,388.00
             149.00,388.00 150.00,388.00 150.00,388.00 Z
           M 154.00,389.00
           C 154.00,389.00 154.00,390.00 154.00,390.00
             154.00,390.00 153.00,389.00 153.00,389.00
             153.00,389.00 154.00,389.00 154.00,389.00 Z
           M 266.00,409.00
           C 266.00,409.00 266.00,410.00 266.00,410.00
             266.00,410.00 265.00,409.00 265.00,409.00
             265.00,409.00 266.00,409.00 266.00,409.00 Z
           M 308.00,424.00
           C 308.00,424.00 308.00,425.00 308.00,425.00
             308.00,425.00 307.00,424.00 307.00,424.00
             307.00,424.00 308.00,424.00 308.00,424.00 Z
           M 318.00,428.00
           C 318.00,428.00 318.00,429.00 318.00,429.00
             318.00,429.00 317.00,428.00 317.00,428.00
             317.00,428.00 318.00,428.00 318.00,428.00 Z
           M 50.00,429.00
           C 50.00,429.00 50.00,430.00 50.00,430.00
             50.00,430.00 49.00,429.00 49.00,429.00
             49.00,429.00 50.00,429.00 50.00,429.00 Z
           M 329.00,521.00
           C 329.00,521.00 329.00,522.00 329.00,522.00
             329.00,522.00 328.00,521.00 328.00,521.00
             328.00,521.00 329.00,521.00 329.00,521.00 Z
           M 307.00,529.00
           C 307.00,529.00 307.00,530.00 307.00,530.00
             307.00,530.00 306.00,529.00 306.00,529.00
             306.00,529.00 307.00,529.00 307.00,529.00 Z
           M 5.00,535.00
           C 5.00,535.00 5.00,536.00 5.00,536.00
             5.00,536.00 4.00,535.00 4.00,535.00
             4.00,535.00 5.00,535.00 5.00,535.00 Z
           M 274.00,540.00
           C 274.00,540.00 274.00,541.00 274.00,541.00
             274.00,541.00 273.00,540.00 273.00,540.00
             273.00,540.00 274.00,540.00 274.00,540.00 Z
           M 263.00,545.00
           C 263.00,545.00 263.00,546.00 263.00,546.00
             263.00,546.00 262.00,545.00 262.00,545.00
             262.00,545.00 263.00,545.00 263.00,545.00 Z
           M 225.00,559.00
           C 225.00,559.00 225.00,560.00 225.00,560.00
             225.00,560.00 224.00,559.00 224.00,559.00
             224.00,559.00 225.00,559.00 225.00,559.00 Z
           M 206.00,568.00
           C 206.00,568.00 206.00,569.00 206.00,569.00
             206.00,569.00 205.00,568.00 205.00,568.00
             205.00,568.00 206.00,568.00 206.00,568.00 Z
           M 59.00,572.00
           C 59.00,572.00 59.00,573.00 59.00,573.00
             59.00,573.00 58.00,572.00 58.00,572.00
             58.00,572.00 59.00,572.00 59.00,572.00 Z
           M 390.00,588.00
           C 390.00,588.00 390.00,589.00 390.00,589.00
             390.00,589.00 389.00,588.00 389.00,588.00
             389.00,588.00 390.00,588.00 390.00,588.00 Z
           M 393.00,592.00
           C 393.00,592.00 393.00,593.00 393.00,593.00
             393.00,593.00 392.00,592.00 392.00,592.00
             392.00,592.00 393.00,592.00 393.00,592.00 Z
           M 396.00,592.00
           C 396.00,592.00 396.00,593.00 396.00,593.00
             396.00,593.00 395.00,592.00 395.00,592.00
             395.00,592.00 396.00,592.00 396.00,592.00 Z
           M 128.00,594.00
           C 128.00,594.00 128.00,595.00 128.00,595.00
             128.00,595.00 127.00,594.00 127.00,594.00
             127.00,594.00 128.00,594.00 128.00,594.00 Z
           M 342.00,600.00
           C 342.00,600.00 342.00,601.00 342.00,601.00
             342.00,601.00 341.00,600.00 341.00,600.00
             341.00,600.00 342.00,600.00 342.00,600.00 Z
           M 67.00,601.00
           C 67.00,601.00 67.00,602.00 67.00,602.00
             67.00,602.00 66.00,601.00 66.00,601.00
             66.00,601.00 67.00,601.00 67.00,601.00 Z
           M 226.00,607.00
           C 226.00,607.00 226.00,608.00 226.00,608.00
             226.00,608.00 225.00,607.00 225.00,607.00
             225.00,607.00 226.00,607.00 226.00,607.00 Z
           M 132.00,608.00
           C 132.00,608.00 132.00,609.00 132.00,609.00
             132.00,609.00 131.00,608.00 131.00,608.00
             131.00,608.00 132.00,608.00 132.00,608.00 Z
           M 331.00,611.00
           C 331.00,611.00 331.00,612.00 331.00,612.00
             331.00,612.00 330.00,611.00 330.00,611.00
             330.00,611.00 331.00,611.00 331.00,611.00 Z
           M 69.00,612.00
           C 69.00,612.00 69.00,613.00 69.00,613.00
             69.00,613.00 68.00,612.00 68.00,612.00
             68.00,612.00 69.00,612.00 69.00,612.00 Z
           M 136.00,618.00
           C 136.00,618.00 136.00,619.00 136.00,619.00
             136.00,619.00 135.00,618.00 135.00,618.00
             135.00,618.00 136.00,618.00 136.00,618.00 Z
           M 319.00,619.00
           C 319.00,619.00 319.00,620.00 319.00,620.00
             319.00,620.00 318.00,619.00 318.00,619.00
             318.00,619.00 319.00,619.00 319.00,619.00 Z
           M 306.00,628.00
           C 306.00,628.00 306.00,629.00 306.00,629.00
             306.00,629.00 305.00,628.00 305.00,628.00
             305.00,628.00 306.00,628.00 306.00,628.00 Z
           M 147.00,639.00
           C 147.00,639.00 147.00,640.00 147.00,640.00
             147.00,640.00 146.00,639.00 146.00,639.00
             146.00,639.00 147.00,639.00 147.00,639.00 Z
           M 33.00,641.00
           C 33.00,641.00 33.00,642.00 33.00,642.00
             33.00,642.00 32.00,641.00 32.00,641.00
             32.00,641.00 33.00,641.00 33.00,641.00 Z
           M 248.00,644.00
           C 248.00,644.00 248.00,645.00 248.00,645.00
             248.00,645.00 247.00,644.00 247.00,644.00
             247.00,644.00 248.00,644.00 248.00,644.00 Z
           M 285.00,646.00
           C 285.00,646.00 285.00,647.00 285.00,647.00
             285.00,647.00 284.00,646.00 284.00,646.00
             284.00,646.00 285.00,646.00 285.00,646.00 Z
           M 284.00,648.00
           C 284.00,648.00 284.00,649.00 284.00,649.00
             284.00,649.00 283.00,648.00 283.00,648.00
             283.00,648.00 284.00,648.00 284.00,648.00 Z
           M 255.00,655.00
           C 255.00,655.00 255.00,656.00 255.00,656.00
             255.00,656.00 254.00,655.00 254.00,655.00
             254.00,655.00 255.00,655.00 255.00,655.00 Z
           M 137.00,656.00
           C 137.00,656.00 137.00,657.00 137.00,657.00
             137.00,657.00 136.00,656.00 136.00,656.00
             136.00,656.00 137.00,656.00 137.00,656.00 Z
           M 89.00,660.00
           C 89.00,660.00 89.00,661.00 89.00,661.00
             89.00,661.00 88.00,660.00 88.00,660.00
             88.00,660.00 89.00,660.00 89.00,660.00 Z
           M 263.00,664.00
           C 263.00,664.00 263.00,665.00 263.00,665.00
             263.00,665.00 262.00,664.00 262.00,664.00
             262.00,664.00 263.00,664.00 263.00,664.00 Z
           M 125.00,665.00
           C 125.00,665.00 125.00,666.00 125.00,666.00
             125.00,666.00 124.00,665.00 124.00,665.00
             124.00,665.00 125.00,665.00 125.00,665.00 Z
           M 160.00,685.00
           C 160.00,685.00 160.00,686.00 160.00,686.00
             160.00,686.00 159.00,685.00 159.00,685.00
             159.00,685.00 160.00,685.00 160.00,685.00 Z
           M 172.00,686.00
           C 178.46,698.97 190.71,714.00 200.29,725.00
             200.29,725.00 209.48,733.84 209.48,733.84
             210.43,734.79 211.91,737.08 213.01,737.47
             216.58,738.70 226.06,729.25 227.00,726.00
             232.07,722.30 241.49,710.28 247.01,710.40
             255.24,710.57 258.34,719.52 268.00,723.00
             268.00,723.00 268.00,726.00 268.00,726.00
             274.67,726.90 276.82,736.18 285.00,737.00
             289.28,741.89 299.44,749.89 306.00,750.00
             307.41,751.85 308.07,752.89 310.04,754.30
             307.08,752.19 329.21,764.94 326.00,763.44
             326.00,763.44 334.00,766.12 334.00,766.12
             340.57,769.25 342.48,773.08 351.00,773.00
             354.75,776.57 370.56,782.31 376.00,783.48
             376.00,783.48 382.72,784.47 382.72,784.47
             382.72,784.47 394.00,790.00 394.00,790.00
             394.00,790.00 391.00,792.00 391.00,792.00
             392.89,795.83 391.29,798.13 390.00,802.00
             390.00,802.00 383.18,822.00 383.18,822.00
             380.76,828.59 381.04,833.41 389.00,834.79
             389.00,834.79 398.00,836.00 398.00,836.00
             402.34,839.70 408.51,840.10 414.00,840.87
             414.00,840.87 439.00,844.72 439.00,844.72
             443.52,845.26 453.19,844.28 455.40,849.22
             456.12,850.84 456.00,854.18 456.00,856.00
             456.00,856.00 456.00,899.00 456.00,899.00
             427.01,899.00 400.20,893.62 372.00,887.42
             372.00,887.42 355.00,883.70 355.00,883.70
             355.00,883.70 346.00,879.87 346.00,879.87
             340.22,877.40 321.39,870.14 316.00,870.00
             311.95,866.13 297.52,859.69 292.00,860.00
             292.00,860.00 293.00,857.00 293.00,857.00
             293.00,857.00 284.00,856.00 284.00,856.00
             280.69,852.33 279.08,850.83 274.00,851.00
             274.00,851.00 268.74,845.58 268.74,845.58
             268.74,845.58 244.00,831.51 244.00,831.51
             244.00,831.51 229.99,820.89 229.99,820.89
             229.99,820.89 221.00,816.96 221.00,816.96
             221.00,816.96 200.00,803.00 200.00,803.00
             200.00,803.00 193.00,796.00 193.00,796.00
             193.00,796.00 194.00,793.00 194.00,793.00
             186.70,791.05 173.11,777.58 170.00,771.00
             170.00,771.00 169.00,772.00 169.00,772.00
             169.00,772.00 167.00,771.00 167.00,771.00
             165.95,766.83 162.46,765.19 159.00,763.00
             159.00,763.00 160.00,760.00 160.00,760.00
             149.38,754.52 149.72,748.37 141.00,741.00
             139.85,735.96 135.07,731.09 131.00,728.00
             129.69,720.78 121.18,718.87 123.00,709.00
             123.00,709.00 126.00,710.00 126.00,710.00
             126.00,710.00 136.00,701.00 136.00,701.00
             136.00,701.00 140.00,702.00 140.00,702.00
             141.35,698.28 142.26,698.35 146.00,699.00
             148.51,694.43 151.14,694.11 156.00,693.00
             156.00,693.00 155.00,690.00 155.00,690.00
             166.09,686.47 158.96,685.18 172.00,686.00 Z
           M 178.00,692.00
           C 178.00,692.00 178.00,693.00 178.00,693.00
             178.00,693.00 177.00,692.00 177.00,692.00
             177.00,692.00 178.00,692.00 178.00,692.00 Z
           M 146.00,696.00
           C 146.00,696.00 146.00,697.00 146.00,697.00
             146.00,697.00 145.00,696.00 145.00,696.00
             145.00,696.00 146.00,696.00 146.00,696.00 Z
           M 60.00,703.00
           C 60.00,703.00 60.00,704.00 60.00,704.00
             60.00,704.00 59.00,703.00 59.00,703.00
             59.00,703.00 60.00,703.00 60.00,703.00 Z
           M 185.00,703.00
           C 185.00,703.00 185.00,704.00 185.00,704.00
             185.00,704.00 184.00,703.00 184.00,703.00
             184.00,703.00 185.00,703.00 185.00,703.00 Z
           M 189.00,707.00
           C 189.00,707.00 189.00,708.00 189.00,708.00
             189.00,708.00 188.00,707.00 188.00,707.00
             188.00,707.00 189.00,707.00 189.00,707.00 Z
           M 247.00,707.00
           C 247.00,707.00 247.00,708.00 247.00,708.00
             247.00,708.00 246.00,707.00 246.00,707.00
             246.00,707.00 247.00,707.00 247.00,707.00 Z
           M 240.00,712.00
           C 240.00,712.00 240.00,713.00 240.00,713.00
             240.00,713.00 239.00,712.00 239.00,712.00
             239.00,712.00 240.00,712.00 240.00,712.00 Z
           M 262.00,715.00
           C 262.00,715.00 262.00,716.00 262.00,716.00
             262.00,716.00 261.00,715.00 261.00,715.00
             261.00,715.00 262.00,715.00 262.00,715.00 Z
           M 236.00,716.00
           C 236.00,716.00 236.00,717.00 236.00,717.00
             236.00,717.00 235.00,716.00 235.00,716.00
             235.00,716.00 236.00,716.00 236.00,716.00 Z
           M 262.00,717.00
           C 262.00,717.00 262.00,718.00 262.00,718.00
             262.00,718.00 261.00,717.00 261.00,717.00
             261.00,717.00 262.00,717.00 262.00,717.00 Z
           M 264.00,719.00
           C 264.00,719.00 264.00,720.00 264.00,720.00
             264.00,720.00 263.00,719.00 263.00,719.00
             263.00,719.00 264.00,719.00 264.00,719.00 Z
           M 201.00,723.00
           C 201.00,723.00 201.00,724.00 201.00,724.00
             201.00,724.00 200.00,723.00 200.00,723.00
             200.00,723.00 201.00,723.00 201.00,723.00 Z
           M 274.00,727.00
           C 274.00,727.00 274.00,728.00 274.00,728.00
             274.00,728.00 273.00,727.00 273.00,727.00
             273.00,727.00 274.00,727.00 274.00,727.00 Z
           M 205.00,728.00
           C 205.00,728.00 205.00,729.00 205.00,729.00
             205.00,729.00 204.00,728.00 204.00,728.00
             204.00,728.00 205.00,728.00 205.00,728.00 Z
           M 224.00,730.00
           C 224.00,730.00 224.00,731.00 224.00,731.00
             224.00,731.00 223.00,730.00 223.00,730.00
             223.00,730.00 224.00,730.00 224.00,730.00 Z
           M 276.00,730.00
           C 276.00,730.00 276.00,731.00 276.00,731.00
             276.00,731.00 275.00,730.00 275.00,730.00
             275.00,730.00 276.00,730.00 276.00,730.00 Z
           M 221.00,731.00
           C 221.00,731.00 221.00,732.00 221.00,732.00
             221.00,732.00 220.00,731.00 220.00,731.00
             220.00,731.00 221.00,731.00 221.00,731.00 Z
           M 217.00,735.00
           C 217.00,735.00 217.00,736.00 217.00,736.00
             217.00,736.00 216.00,735.00 216.00,735.00
             216.00,735.00 217.00,735.00 217.00,735.00 Z
           M 283.00,735.00
           C 283.00,735.00 283.00,736.00 283.00,736.00
             283.00,736.00 282.00,735.00 282.00,735.00
             282.00,735.00 283.00,735.00 283.00,735.00 Z
           M 289.00,739.00
           C 289.00,739.00 289.00,740.00 289.00,740.00
             289.00,740.00 288.00,739.00 288.00,739.00
             288.00,739.00 289.00,739.00 289.00,739.00 Z
           M 87.00,746.00
           C 87.00,746.00 87.00,747.00 87.00,747.00
             87.00,747.00 86.00,746.00 86.00,746.00
             86.00,746.00 87.00,746.00 87.00,746.00 Z
           M 147.00,747.00
           C 147.00,747.00 147.00,748.00 147.00,748.00
             147.00,748.00 146.00,747.00 146.00,747.00
             146.00,747.00 147.00,747.00 147.00,747.00 Z
           M 146.00,748.00
           C 146.00,748.00 146.00,749.00 146.00,749.00
             146.00,749.00 145.00,748.00 145.00,748.00
             145.00,748.00 146.00,748.00 146.00,748.00 Z
           M 98.00,759.00
           C 98.00,759.00 98.00,760.00 98.00,760.00
             98.00,760.00 97.00,759.00 97.00,759.00
             97.00,759.00 98.00,759.00 98.00,759.00 Z
           M 105.00,768.00
           C 105.00,768.00 105.00,769.00 105.00,769.00
             105.00,769.00 104.00,768.00 104.00,768.00
             104.00,768.00 105.00,768.00 105.00,768.00 Z
           M 110.00,772.00
           C 110.00,772.00 110.00,773.00 110.00,773.00
             110.00,773.00 109.00,772.00 109.00,772.00
             109.00,772.00 110.00,772.00 110.00,772.00 Z
           M 113.00,778.00
           C 113.00,778.00 113.00,779.00 113.00,779.00
             113.00,779.00 112.00,778.00 112.00,778.00
             112.00,778.00 113.00,778.00 113.00,778.00 Z
           M 125.00,793.00
           C 125.00,793.00 125.00,794.00 125.00,794.00
             125.00,794.00 124.00,793.00 124.00,793.00
             124.00,793.00 125.00,793.00 125.00,793.00 Z
           M 129.00,797.00
           C 129.00,797.00 129.00,798.00 129.00,798.00
             129.00,798.00 128.00,797.00 128.00,797.00
             128.00,797.00 129.00,797.00 129.00,797.00 Z
           M 195.00,797.00
           C 195.00,797.00 195.00,798.00 195.00,798.00
             195.00,798.00 194.00,797.00 194.00,797.00
             194.00,797.00 195.00,797.00 195.00,797.00 Z
           M 136.00,804.00
           C 136.00,804.00 136.00,805.00 136.00,805.00
             136.00,805.00 135.00,804.00 135.00,804.00
             135.00,804.00 136.00,804.00 136.00,804.00 Z
           M 390.00,806.00
           C 390.00,806.00 390.00,807.00 390.00,807.00
             390.00,807.00 389.00,806.00 389.00,806.00
             389.00,806.00 390.00,806.00 390.00,806.00 Z
           M 207.00,808.00
           C 207.00,808.00 207.00,809.00 207.00,809.00
             207.00,809.00 206.00,808.00 206.00,808.00
             206.00,808.00 207.00,808.00 207.00,808.00 Z
           M 153.00,819.00
           C 153.00,819.00 153.00,820.00 153.00,820.00
             153.00,820.00 152.00,819.00 152.00,819.00
             152.00,819.00 153.00,819.00 153.00,819.00 Z
           M 157.00,820.00
           C 157.00,820.00 157.00,821.00 157.00,821.00
             157.00,821.00 156.00,820.00 156.00,820.00
             156.00,820.00 157.00,820.00 157.00,820.00 Z
           M 234.00,825.00
           C 234.00,825.00 234.00,826.00 234.00,826.00
             234.00,826.00 233.00,825.00 233.00,825.00
             233.00,825.00 234.00,825.00 234.00,825.00 Z
           M 399.00,835.00
           C 399.00,835.00 399.00,836.00 399.00,836.00
             399.00,836.00 398.00,835.00 398.00,835.00
             398.00,835.00 399.00,835.00 399.00,835.00 Z
           M 249.00,837.00
           C 249.00,837.00 249.00,838.00 249.00,838.00
             249.00,838.00 248.00,837.00 248.00,837.00
             248.00,837.00 249.00,837.00 249.00,837.00 Z
           M 178.00,839.00
           C 178.00,839.00 178.00,840.00 178.00,840.00
             178.00,840.00 177.00,839.00 177.00,839.00
             177.00,839.00 178.00,839.00 178.00,839.00 Z
           M 179.00,841.00
           C 179.00,841.00 179.00,842.00 179.00,842.00
             179.00,842.00 178.00,841.00 178.00,841.00
             178.00,841.00 179.00,841.00 179.00,841.00 Z
           M 260.00,841.00
           C 260.00,841.00 260.00,842.00 260.00,842.00
             260.00,842.00 259.00,841.00 259.00,841.00
             259.00,841.00 260.00,841.00 260.00,841.00 Z
           M 180.00,843.00
           C 180.00,843.00 180.00,844.00 180.00,844.00
             180.00,844.00 179.00,843.00 179.00,843.00
             179.00,843.00 180.00,843.00 180.00,843.00 Z
           M 186.00,846.00
           C 186.00,846.00 186.00,847.00 186.00,847.00
             186.00,847.00 185.00,846.00 185.00,846.00
             185.00,846.00 186.00,846.00 186.00,846.00 Z
           M 278.00,851.00
           C 278.00,851.00 278.00,852.00 278.00,852.00
             278.00,852.00 277.00,851.00 277.00,851.00
             277.00,851.00 278.00,851.00 278.00,851.00 Z
           M 279.00,852.00
           C 279.00,852.00 279.00,853.00 279.00,853.00
             279.00,853.00 278.00,852.00 278.00,852.00
             278.00,852.00 279.00,852.00 279.00,852.00 Z
           M 283.00,856.00
           C 283.00,856.00 283.00,857.00 283.00,857.00
             283.00,857.00 282.00,856.00 282.00,856.00
             282.00,856.00 283.00,856.00 283.00,856.00 Z
           M 291.00,860.00
           C 291.00,860.00 291.00,861.00 291.00,861.00
             291.00,861.00 290.00,860.00 290.00,860.00
             290.00,860.00 291.00,860.00 291.00,860.00 Z
           M 309.00,866.00
           C 309.00,866.00 309.00,867.00 309.00,867.00
             309.00,867.00 308.00,866.00 308.00,866.00
             308.00,866.00 309.00,866.00 309.00,866.00 Z
           M 224.00,873.00
           C 224.00,873.00 224.00,874.00 224.00,874.00
             224.00,874.00 223.00,873.00 223.00,873.00
             223.00,873.00 224.00,873.00 224.00,873.00 Z
           M 340.00,878.00
           C 340.00,878.00 340.00,879.00 340.00,879.00
             340.00,879.00 339.00,878.00 339.00,878.00
             339.00,878.00 340.00,878.00 340.00,878.00 Z
           M 339.00,879.00
           C 339.00,879.00 339.00,880.00 339.00,880.00
             339.00,880.00 338.00,879.00 338.00,879.00
             338.00,879.00 339.00,879.00 339.00,879.00 Z
           M 243.00,885.00
           C 243.00,885.00 243.00,886.00 243.00,886.00
             243.00,886.00 242.00,885.00 242.00,885.00
             242.00,885.00 243.00,885.00 243.00,885.00 Z
           M 252.00,887.00
           C 252.00,887.00 252.00,888.00 252.00,888.00
             252.00,888.00 251.00,887.00 251.00,887.00
             251.00,887.00 252.00,887.00 252.00,887.00 Z
           M 258.00,894.00
           C 258.00,894.00 258.00,895.00 258.00,895.00
             258.00,895.00 257.00,894.00 257.00,894.00
             257.00,894.00 258.00,894.00 258.00,894.00 Z
           M 416.00,897.00
           C 416.00,897.00 416.00,898.00 416.00,898.00
             416.00,898.00 415.00,897.00 415.00,897.00
             415.00,897.00 416.00,897.00 416.00,897.00 Z
           M 301.00,912.00
           C 301.00,912.00 301.00,913.00 301.00,913.00
             301.00,913.00 300.00,912.00 300.00,912.00
             300.00,912.00 301.00,912.00 301.00,912.00 Z" />
</svg>
