<svg xmlns="http://www.w3.org/2000/svg" viewBox="0 0 475 916">
	<path fill="#bf0000" fill-opacity=".3" stroke="#bf0000" stroke-width="5" stroke-opacity=".3"
		  d="M 0.00,0.00
           C 0.00,0.00 0.00,40.00 0.00,40.00
             30.93,40.00 61.75,43.83 92.00,50.00
             92.00,50.00 105.00,52.48 105.00,52.48
             105.00,52.48 129.00,59.98 129.00,59.98
             155.23,68.13 166.29,72.40 191.00,84.75
             191.00,84.75 206.00,92.35 206.00,92.35
             206.00,92.35 214.00,98.01 214.00,98.01
             214.00,98.01 221.83,101.73 221.83,101.73
             221.83,101.73 244.28,117.23 244.28,117.23
             244.28,117.23 251.00,121.10 251.00,121.10
             251.00,121.10 263.96,130.75 263.96,130.75
             267.78,133.80 268.14,135.25 270.51,137.37
             270.51,137.37 278.98,143.21 278.98,143.21
             278.98,143.21 286.37,151.13 286.37,151.13
             286.37,151.13 298.00,161.00 298.00,161.00
             298.00,161.00 313.74,178.63 313.74,178.63
             313.74,178.63 320.66,185.04 320.66,185.04
             320.66,185.04 326.41,194.00 326.41,194.00
             326.41,194.00 338.37,207.00 338.37,207.00
             338.37,207.00 347.32,221.91 347.32,221.91
             347.32,221.91 354.90,231.00 354.90,231.00
             354.90,231.00 374.63,265.00 374.63,265.00
             374.63,265.00 377.84,273.00 377.84,273.00
             377.84,273.00 383.11,282.00 383.11,282.00
             383.11,282.00 390.40,300.00 390.40,300.00
             403.61,333.02 411.08,360.82 416.13,396.00
             416.13,396.00 417.96,406.00 417.96,406.00
             417.96,406.00 417.96,416.00 417.96,416.00
             417.96,416.00 420.00,438.00 420.00,438.00
             420.00,438.00 420.00,470.00 420.00,470.00
             420.00,470.00 418.17,492.00 418.17,492.00
             415.22,522.48 409.62,553.05 399.31,582.00
             399.31,582.00 391.60,601.00 391.60,601.00
             391.60,601.00 374.69,641.00 374.69,641.00
             374.69,641.00 368.54,650.00 368.54,650.00
             368.54,650.00 359.53,667.00 359.53,667.00
             359.53,667.00 348.48,684.00 348.48,684.00
             348.48,684.00 340.80,693.28 340.80,693.28
             340.80,693.28 334.10,703.16 334.10,703.16
             334.10,703.16 327.80,710.27 327.80,710.27
             313.27,728.62 309.77,733.01 292.12,749.04
             292.12,749.04 283.98,757.71 283.98,757.71
             273.28,767.37 261.96,775.43 250.28,783.75
             250.28,783.75 237.98,793.01 237.98,793.01
             237.98,793.01 219.00,804.54 219.00,804.54
             219.00,804.54 213.00,809.00 213.00,809.00
             213.00,809.00 199.00,816.47 199.00,816.47
             199.00,816.47 193.00,818.89 193.00,818.89
             193.00,818.89 181.00,825.69 181.00,825.69
             181.00,825.69 173.00,828.47 173.00,828.47
             173.00,828.47 163.00,833.91 163.00,833.91
             163.00,833.91 107.00,852.12 107.00,852.12
             89.10,856.81 44.95,863.97 27.00,864.00
             27.00,864.00 0.00,864.00 0.00,864.00
             0.00,864.00 0.00,916.00 0.00,916.00
             0.00,916.00 23.00,916.00 23.00,916.00
             23.00,916.00 35.00,915.09 35.00,915.09
             35.00,915.09 54.00,913.83 54.00,913.83
             54.00,913.83 76.00,910.42 76.00,910.42
             76.00,910.42 134.00,898.25 134.00,898.25
             134.00,898.25 150.00,892.67 150.00,892.67
             150.00,892.67 200.00,874.42 200.00,874.42
             200.00,874.42 234.00,857.53 234.00,857.53
             234.00,857.53 244.00,852.91 244.00,852.91
             244.00,852.91 259.00,843.06 259.00,843.06
             259.00,843.06 283.00,827.70 283.00,827.70
             283.00,827.70 313.00,803.27 313.00,803.27
             313.00,803.27 332.00,787.96 332.00,787.96
             332.00,787.96 349.28,769.43 349.28,769.43
             349.28,769.43 370.56,747.00 370.56,747.00
             370.56,747.00 388.15,723.00 388.15,723.00
             388.15,723.00 408.91,694.00 408.91,694.00
             408.91,694.00 416.31,680.00 416.31,680.00
             416.31,680.00 423.68,668.00 423.68,668.00
             423.68,668.00 427.81,659.00 427.81,659.00
             427.81,659.00 439.94,632.00 439.94,632.00
             447.30,612.97 455.06,593.74 460.27,574.00
             460.27,574.00 467.42,540.00 467.42,540.00
             467.42,540.00 469.70,529.00 469.70,529.00
             469.70,529.00 472.17,503.00 472.17,503.00
             472.17,503.00 475.00,474.00 475.00,474.00
             475.43,436.67 472.76,398.52 464.58,362.00
             464.58,362.00 447.67,305.00 447.67,305.00
             447.67,305.00 445.34,297.00 445.34,297.00
             445.34,297.00 441.07,288.00 441.07,288.00
             441.07,288.00 437.65,277.00 437.65,277.00
             437.65,277.00 424.31,252.00 424.31,252.00
             424.31,252.00 414.21,232.11 414.21,232.11
             414.21,232.11 408.41,224.95 408.41,224.95
             408.41,224.95 404.05,216.00 404.05,216.00
             404.05,216.00 397.47,207.00 397.47,207.00
             397.47,207.00 393.33,200.00 393.33,200.00
             393.33,200.00 382.39,186.00 382.39,186.00
             382.39,186.00 377.61,179.00 377.61,179.00
             377.61,179.00 369.54,170.83 369.54,170.83
             367.77,168.59 367.54,166.81 363.56,162.00
             363.56,162.00 342.00,140.00 342.00,140.00
             331.91,129.91 322.00,119.44 311.00,110.32
             311.00,110.32 294.00,98.11 294.00,98.11
             294.00,98.11 271.00,80.63 271.00,80.63
             271.00,80.63 262.00,75.54 262.00,75.54
             262.00,75.54 250.00,67.45 250.00,67.45
             250.00,67.45 236.00,60.14 236.00,60.14
             236.00,60.14 223.00,52.40 223.00,52.40
             223.00,52.40 200.00,42.57 200.00,42.57
             200.00,42.57 184.00,35.45 184.00,35.45
             184.00,35.45 162.00,27.66 162.00,27.66
             162.00,27.66 125.00,15.88 125.00,15.88
             86.38,5.73 39.88,0.00 0.00,0.00 Z
           M 0.00,787.00
           C 0.00,787.00 30.00,787.00 30.00,787.00
             30.00,787.00 56.00,784.28 56.00,784.28
             56.00,784.28 64.00,783.70 64.00,783.70
             90.28,779.94 115.54,772.63 140.00,762.28
             140.00,762.28 154.00,757.16 154.00,757.16
             154.00,757.16 162.00,752.31 162.00,752.31
             162.00,752.31 173.00,746.57 173.00,746.57
             192.64,735.33 214.32,720.06 231.00,704.83
             231.00,704.83 242.41,693.40 242.41,693.40
             242.41,693.40 250.50,686.55 250.50,686.55
             250.50,686.55 259.76,674.30 259.76,674.30
             262.14,671.77 263.93,671.77 266.37,668.86
             266.37,668.86 277.04,655.00 277.04,655.00
             277.04,655.00 281.75,647.00 281.75,647.00
             281.75,647.00 290.60,635.00 290.60,635.00
             297.80,624.21 303.46,612.58 309.25,601.00
             309.25,601.00 320.65,578.00 320.65,578.00
             320.65,578.00 323.10,569.00 323.10,569.00
             323.10,569.00 326.66,560.00 326.66,560.00
             326.66,560.00 332.00,542.00 332.00,542.00
             338.82,518.36 340.14,511.23 343.15,487.00
             343.15,487.00 346.00,467.00 346.00,467.00
             346.00,467.00 346.00,431.00 346.00,431.00
             346.00,431.00 342.28,396.00 342.28,396.00
             342.28,396.00 340.19,380.00 340.19,380.00
             340.19,380.00 334.95,358.00 334.95,358.00
             334.95,358.00 331.24,349.00 331.24,349.00
             331.24,349.00 328.46,338.00 328.46,338.00
             328.46,338.00 314.63,306.00 314.63,306.00
             314.63,306.00 304.87,290.00 304.87,290.00
             304.87,290.00 293.37,269.01 293.37,269.01
             293.37,269.01 282.48,257.71 282.48,257.71
             282.48,257.71 272.96,244.24 272.96,244.24
             272.96,244.24 265.08,236.84 265.08,236.84
             265.08,236.84 253.72,225.79 253.72,225.79
             253.72,225.79 245.91,217.30 245.91,217.30
             245.91,217.30 236.30,210.10 236.30,210.10
             236.30,210.10 231.70,204.69 231.70,204.69
             231.70,204.69 223.00,199.47 223.00,199.47
             216.32,194.42 211.29,187.47 202.00,190.00
             203.96,197.53 206.82,197.83 210.68,204.00
             210.68,204.00 229.46,236.00 229.46,236.00
             235.77,245.96 244.86,271.13 248.66,283.00
             248.66,283.00 255.70,310.00 255.70,310.00
             255.70,310.00 256.29,321.00 256.29,321.00
             256.98,326.62 257.92,328.80 258.00,335.00
             258.20,352.53 255.25,372.34 249.64,389.00
             249.64,389.00 245.54,399.00 245.54,399.00
             238.81,417.48 230.40,434.66 219.12,450.83
             219.12,450.83 212.89,458.01 212.89,458.01
             200.15,474.10 190.81,482.50 173.00,492.72
             173.00,492.72 165.00,497.47 165.00,497.47
             165.00,497.47 156.00,500.01 156.00,500.01
             147.86,502.57 146.18,504.89 137.00,505.00
             117.72,505.22 112.53,506.01 94.00,499.06
             90.67,497.82 87.11,497.12 84.00,495.37
             81.70,494.07 72.31,487.35 70.48,485.58
             70.48,485.58 65.54,478.96 65.54,478.96
             65.54,478.96 58.92,471.00 58.92,471.00
             55.72,466.65 48.71,453.99 46.96,449.00
             46.96,449.00 45.37,441.00 45.37,441.00
             45.37,441.00 41.68,431.00 41.68,431.00
             41.68,431.00 39.84,417.00 39.84,417.00
             39.00,409.32 38.01,408.99 38.00,400.00
             37.97,382.79 39.34,363.66 43.93,347.00
             43.93,347.00 47.38,338.00 47.38,338.00
             50.34,328.50 53.74,318.59 58.95,310.00
             58.95,310.00 69.68,294.00 69.68,294.00
             69.68,294.00 76.63,282.17 76.63,282.17
             79.52,278.59 83.57,276.78 86.68,273.68
             86.68,273.68 99.00,260.00 99.00,260.00
             103.48,255.52 116.55,244.15 116.75,238.02
             116.90,233.62 112.93,231.74 110.32,228.90
             110.32,228.90 105.77,223.44 105.77,223.44
             105.77,223.44 94.59,213.00 94.59,213.00
             92.92,210.96 91.09,207.72 87.99,208.03
             84.71,208.35 80.95,213.63 78.84,216.00
             74.64,220.70 70.34,225.33 65.55,229.42
             61.29,233.06 60.74,232.79 56.39,237.56
             54.25,239.91 49.88,244.74 46.23,243.57
             42.13,242.25 42.96,233.43 43.00,230.00
             43.18,215.11 51.20,200.20 59.03,188.00
             62.41,182.74 67.86,180.03 69.00,174.00
             69.00,174.00 73.00,170.00 73.00,170.00
             73.00,170.00 52.99,150.00 52.99,150.00
             52.99,150.00 41.14,137.47 41.14,137.47
             41.14,137.47 36.62,133.59 36.62,133.59
             36.62,133.59 31.63,126.43 31.63,126.43
             31.63,126.43 11.00,105.00 11.00,105.00
             7.06,106.33 2.19,110.30 0.58,114.26
             -0.24,116.28 0.00,121.61 0.00,124.00
             0.00,124.00 0.00,145.00 0.00,145.00
             0.00,145.00 0.00,267.00 0.00,267.00
             0.00,267.00 0.00,787.00 0.00,787.00 Z
           M 65.00,179.00
           C 65.00,179.00 65.00,180.00 65.00,180.00
             65.00,180.00 64.00,179.00 64.00,179.00
             64.00,179.00 65.00,179.00 65.00,179.00 Z
           M 242.00,259.00
           C 242.00,259.00 242.00,260.00 242.00,260.00
             242.00,260.00 241.00,259.00 241.00,259.00
             241.00,259.00 242.00,259.00 242.00,259.00 Z
           M 371.00,744.00
           C 371.00,744.00 371.00,745.00 371.00,745.00
             371.00,745.00 370.00,744.00 370.00,744.00
             370.00,744.00 371.00,744.00 371.00,744.00 Z
           M 344.00,774.00
           C 344.00,774.00 344.00,775.00 344.00,775.00
             344.00,775.00 343.00,774.00 343.00,774.00
             343.00,774.00 344.00,774.00 344.00,774.00 Z
           M 339.00,779.00
           C 339.00,779.00 339.00,780.00 339.00,780.00
             339.00,780.00 338.00,779.00 338.00,779.00
             338.00,779.00 339.00,779.00 339.00,779.00 Z
           M 334.00,784.00
           C 334.00,784.00 334.00,785.00 334.00,785.00
             334.00,785.00 333.00,784.00 333.00,784.00
             333.00,784.00 334.00,784.00 334.00,784.00 Z" />
</svg>
